<?xml version="1.0" encoding="UTF-8" standalone="no"?>
<svg width="2593px" height="2056px" viewBox="0 0 2593 2056" version="1.1" xmlns="http://www.w3.org/2000/svg" xmlns:xlink="http://www.w3.org/1999/xlink" xmlns:sketch="http://www.bohemiancoding.com/sketch/ns">
    <!-- Generator: Sketch 3.2.2 (9983) - http://www.bohemiancoding.com/sketch -->
    <title>mockups-devices</title>
    <desc>Created with Sketch.</desc>
    <defs>
        <rect id="path-1" x="0.0562493381" y="0" width="2437.73649" height="1316.54504"></rect>
    </defs>
    <g id="Page-1" stroke="none" stroke-width="1" fill="none" fill-rule="evenodd" sketch:type="MSPage">
        <g id="imac" sketch:type="MSLayerGroup" transform="translate(0.269864, 0.267864)">
            <rect fill="#43403D" sketch:type="MSShapeGroup" x="0.391732448" y="0" width="2591.68301" height="1755.0608" rx="90"></rect>
            <rect id="bottom-frame" fill="#D9D9D9" sketch:type="MSShapeGroup" x="0.498880272" y="1513.60275" width="2591.68301" height="242.005376"></rect>
            <g id="screen" transform="translate(76.827562, 126.715589)">
                <rect fill="#5E93FB" sketch:type="MSShapeGroup" x="0.0562493381" y="0" width="2437.73649" height="1316.54504"></rect>
                <g>
                    <mask id="mask-2" sketch:name="Mask" fill="white">
                        <use xlink:href="#path-1"></use>
                    </mask>
                    <use id="Mask" sketch:type="MSShapeGroup" xlink:href="#path-1"></use>
                    <path d="M753.863017,-343.23328 L1869.96481,-1445.66483 L3812.02823,343.23328 L2695.92644,1445.66483 L753.863017,-343.23328 L753.863017,-343.23328 Z" id="Rectangle-28" fill="#679BFF" sketch:type="MSShapeGroup" mask="url(#mask-2)"></path>
                </g>
            </g>
            <g id="base" transform="translate(871.543836, 1755.559678)" sketch:type="MSShapeGroup">
                <path d="M147.434489,0.0484440227 L701.800808,0.0484440227 C701.800808,0.0484440227 713.025595,207.783633 846.599829,278.799532 L1.24720739,278.799532 C129.708878,200.050988 147.434489,0.0484440227 147.434489,0.0484440227 Z" fill="#ADADAD"></path>
                <path d="M705.313022,31.4294386 C714.3194,92.2448841 745.220376,224.900267 846.599829,278.799532 L1.24720739,278.799532 C98.1868508,219.374369 132.067829,90.9010969 142.858408,31.429442 L705.313025,31.4294572 Z" id="base-shadow" fill="#C7C7C7"></path>
                <rect id="base-bottom" fill="#B0B0B0" x="0.0401941452" y="278.799543" width="849.154909" height="20.5286204"></rect>
            </g>
        </g>
    </g>
</svg>