<?xml version="1.0" encoding="UTF-8" standalone="no"?>
<svg width="2046px" height="1148px" viewBox="0 0 2046 1148" version="1.1" xmlns="http://www.w3.org/2000/svg" xmlns:xlink="http://www.w3.org/1999/xlink" xmlns:sketch="http://www.bohemiancoding.com/sketch/ns">
    <!-- Generator: Sketch 3.2.2 (9983) - http://www.bohemiancoding.com/sketch -->
    <title>mockups-devices</title>
    <desc>Created with Sketch.</desc>
    <defs></defs>
    <g id="Page-1" stroke="none" stroke-width="1" fill="none" fill-rule="evenodd" sketch:type="MSPage">
        <g id="laptop" sketch:type="MSLayerGroup" transform="translate(1.000000, 0.229960)">
            <rect id="screen-block" fill="#43403D" sketch:type="MSShapeGroup" x="228.895456" y="0" width="1586.49823" height="1126.03827" rx="80"></rect>
            <g id="screen" transform="translate(297.831523, 94.787252)" sketch:type="MSShapeGroup">
                <rect fill="#5E93FB" x="0.232454705" y="0.0565990584" width="1449.03674" height="915.894049" rx="10"></rect>
                <path d="M574.048891,0.0565990584 L1439.26689,0.0565990584 C1444.79101,0.0565990584 1449.2692,4.52623279 1449.2692,10.0497408 L1449.2692,905.957507 C1449.2692,906.094088 1449.26645,906.23003 1449.26101,906.36528 L574.048891,0.0565990584 Z" id="reflect" fill="#689BFF"></path>
            </g>
            <g id="base" transform="translate(0.000000, 1046.650811)" sketch:type="MSShapeGroup">
                <rect stroke="#979797" fill="#DEDEDE" x="0.37667063" y="0.350914162" width="2043.53581" height="56.7203421"></rect>
                <rect id="opener" fill="#ADADAD" x="903.945201" y="0.350914162" width="236.398744" height="28.8250919"></rect>
                <path d="M0.37667063,57.0712563 L2043.91248,57.0712563 C2043.91248,57.0712563 1991.8172,100.485295 1870.5534,100.485294 C1749.2896,100.485293 284.492938,100.485293 161.915812,100.485293 C39.3386858,100.485293 0.37667063,57.0712563 0.37667063,57.0712563 Z" id="base-bottom" fill="#ADADAD"></path>
            </g>
        </g>
    </g>
</svg>